<svg width="403" height="716" viewBox="0 0 403 716" fill="none" xmlns="http://www.w3.org/2000/svg">
<rect width="403" height="716" fill="#030D2A"/>
<path d="M104.918 125L91.4781 86.12H103.478L111.798 114.36L108.278 114.44L117.478 86.12H127.398L136.678 114.44L133.078 114.36L141.478 86.12H153.478L140.038 125H130.038L120.998 98.12H124.038L114.838 125H104.918ZM173.669 125.8C170.096 125.8 166.896 124.92 164.069 123.16C161.296 121.4 159.083 119 157.429 115.96C155.829 112.92 155.029 109.453 155.029 105.56C155.029 101.667 155.829 98.2 157.429 95.16C159.083 92.12 161.296 89.72 164.069 87.96C166.896 86.2 170.096 85.32 173.669 85.32C176.283 85.32 178.629 85.8267 180.709 86.84C182.843 87.8533 184.576 89.2667 185.909 91.08C187.243 92.84 187.989 94.8667 188.149 97.16V113.96C187.989 116.253 187.243 118.307 185.909 120.12C184.629 121.88 182.923 123.267 180.789 124.28C178.656 125.293 176.283 125.8 173.669 125.8ZM176.149 114.76C178.763 114.76 180.869 113.907 182.469 112.2C184.069 110.44 184.869 108.227 184.869 105.56C184.869 103.747 184.496 102.147 183.749 100.76C183.056 99.3733 182.043 98.3067 180.709 97.56C179.429 96.76 177.936 96.36 176.229 96.36C174.523 96.36 173.003 96.76 171.669 97.56C170.389 98.3067 169.349 99.3733 168.549 100.76C167.803 102.147 167.429 103.747 167.429 105.56C167.429 107.32 167.803 108.893 168.549 110.28C169.296 111.667 170.336 112.76 171.669 113.56C173.003 114.36 174.496 114.76 176.149 114.76ZM184.389 125V114.52L186.229 105.08L184.389 95.64V86.12H196.389V125H184.389Z" fill="white"/>
<path d="M217.008 125.16L201.008 86.12H214.208L224.368 117.08H219.488L229.888 86.12H243.088L226.448 125.16H217.008ZM207.008 141.4L218.688 116.2L226.448 125.16L219.568 141.4H207.008ZM264.978 125.88C260.978 125.88 257.351 125 254.098 123.24C250.898 121.427 248.364 118.973 246.498 115.88C244.631 112.787 243.698 109.32 243.698 105.48C243.698 101.64 244.631 98.2 246.498 95.16C248.364 92.12 250.898 89.72 254.098 87.96C257.298 86.1467 260.924 85.24 264.978 85.24C269.031 85.24 272.658 86.12 275.858 87.88C279.058 89.64 281.591 92.0667 283.458 95.16C285.324 98.2 286.258 101.64 286.258 105.48C286.258 109.32 285.324 112.787 283.458 115.88C281.591 118.973 279.058 121.427 275.858 123.24C272.658 125 269.031 125.88 264.978 125.88ZM264.978 114.76C266.738 114.76 268.284 114.387 269.618 113.64C270.951 112.84 271.964 111.747 272.658 110.36C273.404 108.92 273.778 107.293 273.778 105.48C273.778 103.667 273.404 102.093 272.658 100.76C271.911 99.3733 270.871 98.3067 269.538 97.56C268.258 96.76 266.738 96.36 264.978 96.36C263.271 96.36 261.751 96.76 260.418 97.56C259.084 98.3067 258.044 99.3733 257.298 100.76C256.551 102.147 256.178 103.747 256.178 105.56C256.178 107.32 256.551 108.92 257.298 110.36C258.044 111.747 259.084 112.84 260.418 113.64C261.751 114.387 263.271 114.76 264.978 114.76ZM299.016 125.88C296.936 125.88 295.202 125.16 293.816 123.72C292.429 122.28 291.736 120.547 291.736 118.52C291.736 116.387 292.429 114.627 293.816 113.24C295.202 111.8 296.936 111.08 299.016 111.08C301.149 111.08 302.882 111.8 304.216 113.24C305.602 114.627 306.296 116.387 306.296 118.52C306.296 120.547 305.602 122.28 304.216 123.72C302.882 125.16 301.149 125.88 299.016 125.88Z" fill="#D9D9D9"/>
<g opacity="0.8">
<path d="M104.918 228L91.4781 189.12H103.478L111.798 217.36L108.278 217.44L117.478 189.12H127.398L136.678 217.44L133.078 217.36L141.478 189.12H153.478L140.038 228H130.038L120.998 201.12H124.038L114.838 228H104.918ZM173.669 228.8C170.096 228.8 166.896 227.92 164.069 226.16C161.296 224.4 159.083 222 157.429 218.96C155.829 215.92 155.029 212.453 155.029 208.56C155.029 204.667 155.829 201.2 157.429 198.16C159.083 195.12 161.296 192.72 164.069 190.96C166.896 189.2 170.096 188.32 173.669 188.32C176.283 188.32 178.629 188.827 180.709 189.84C182.843 190.853 184.576 192.267 185.909 194.08C187.243 195.84 187.989 197.867 188.149 200.16V216.96C187.989 219.253 187.243 221.307 185.909 223.12C184.629 224.88 182.923 226.267 180.789 227.28C178.656 228.293 176.283 228.8 173.669 228.8ZM176.149 217.76C178.763 217.76 180.869 216.907 182.469 215.2C184.069 213.44 184.869 211.227 184.869 208.56C184.869 206.747 184.496 205.147 183.749 203.76C183.056 202.373 182.043 201.307 180.709 200.56C179.429 199.76 177.936 199.36 176.229 199.36C174.523 199.36 173.003 199.76 171.669 200.56C170.389 201.307 169.349 202.373 168.549 203.76C167.803 205.147 167.429 206.747 167.429 208.56C167.429 210.32 167.803 211.893 168.549 213.28C169.296 214.667 170.336 215.76 171.669 216.56C173.003 217.36 174.496 217.76 176.149 217.76ZM184.389 228V217.52L186.229 208.08L184.389 198.64V189.12H196.389V228H184.389Z" fill="white"/>
<path d="M217.008 228.16L201.008 189.12H214.208L224.368 220.08H219.488L229.888 189.12H243.088L226.448 228.16H217.008ZM207.008 244.4L218.688 219.2L226.448 228.16L219.568 244.4H207.008ZM264.978 228.88C260.978 228.88 257.351 228 254.098 226.24C250.898 224.427 248.364 221.973 246.498 218.88C244.631 215.787 243.698 212.32 243.698 208.48C243.698 204.64 244.631 201.2 246.498 198.16C248.364 195.12 250.898 192.72 254.098 190.96C257.298 189.147 260.924 188.24 264.978 188.24C269.031 188.24 272.658 189.12 275.858 190.88C279.058 192.64 281.591 195.067 283.458 198.16C285.324 201.2 286.258 204.64 286.258 208.48C286.258 212.32 285.324 215.787 283.458 218.88C281.591 221.973 279.058 224.427 275.858 226.24C272.658 228 269.031 228.88 264.978 228.88ZM264.978 217.76C266.738 217.76 268.284 217.387 269.618 216.64C270.951 215.84 271.964 214.747 272.658 213.36C273.404 211.92 273.778 210.293 273.778 208.48C273.778 206.667 273.404 205.093 272.658 203.76C271.911 202.373 270.871 201.307 269.538 200.56C268.258 199.76 266.738 199.36 264.978 199.36C263.271 199.36 261.751 199.76 260.418 200.56C259.084 201.307 258.044 202.373 257.298 203.76C256.551 205.147 256.178 206.747 256.178 208.56C256.178 210.32 256.551 211.92 257.298 213.36C258.044 214.747 259.084 215.84 260.418 216.64C261.751 217.387 263.271 217.76 264.978 217.76ZM299.016 228.88C296.936 228.88 295.202 228.16 293.816 226.72C292.429 225.28 291.736 223.547 291.736 221.52C291.736 219.387 292.429 217.627 293.816 216.24C295.202 214.8 296.936 214.08 299.016 214.08C301.149 214.08 302.882 214.8 304.216 216.24C305.602 217.627 306.296 219.387 306.296 221.52C306.296 223.547 305.602 225.28 304.216 226.72C302.882 228.16 301.149 228.88 299.016 228.88Z" fill="#D9D9D9"/>
</g>
<g opacity="0.6">
<path d="M104.918 331L91.4781 292.12H103.478L111.798 320.36L108.278 320.44L117.478 292.12H127.398L136.678 320.44L133.078 320.36L141.478 292.12H153.478L140.038 331H130.038L120.998 304.12H124.038L114.838 331H104.918ZM173.669 331.8C170.096 331.8 166.896 330.92 164.069 329.16C161.296 327.4 159.083 325 157.429 321.96C155.829 318.92 155.029 315.453 155.029 311.56C155.029 307.667 155.829 304.2 157.429 301.16C159.083 298.12 161.296 295.72 164.069 293.96C166.896 292.2 170.096 291.32 173.669 291.32C176.283 291.32 178.629 291.827 180.709 292.84C182.843 293.853 184.576 295.267 185.909 297.08C187.243 298.84 187.989 300.867 188.149 303.16V319.96C187.989 322.253 187.243 324.307 185.909 326.12C184.629 327.88 182.923 329.267 180.789 330.28C178.656 331.293 176.283 331.8 173.669 331.8ZM176.149 320.76C178.763 320.76 180.869 319.907 182.469 318.2C184.069 316.44 184.869 314.227 184.869 311.56C184.869 309.747 184.496 308.147 183.749 306.76C183.056 305.373 182.043 304.307 180.709 303.56C179.429 302.76 177.936 302.36 176.229 302.36C174.523 302.36 173.003 302.76 171.669 303.56C170.389 304.307 169.349 305.373 168.549 306.76C167.803 308.147 167.429 309.747 167.429 311.56C167.429 313.32 167.803 314.893 168.549 316.28C169.296 317.667 170.336 318.76 171.669 319.56C173.003 320.36 174.496 320.76 176.149 320.76ZM184.389 331V320.52L186.229 311.08L184.389 301.64V292.12H196.389V331H184.389Z" fill="white"/>
<path d="M217.008 331.16L201.008 292.12H214.208L224.368 323.08H219.488L229.888 292.12H243.088L226.448 331.16H217.008ZM207.008 347.4L218.688 322.2L226.448 331.16L219.568 347.4H207.008ZM264.978 331.88C260.978 331.88 257.351 331 254.098 329.24C250.898 327.427 248.364 324.973 246.498 321.88C244.631 318.787 243.698 315.32 243.698 311.48C243.698 307.64 244.631 304.2 246.498 301.16C248.364 298.12 250.898 295.72 254.098 293.96C257.298 292.147 260.924 291.24 264.978 291.24C269.031 291.24 272.658 292.12 275.858 293.88C279.058 295.64 281.591 298.067 283.458 301.16C285.324 304.2 286.258 307.64 286.258 311.48C286.258 315.32 285.324 318.787 283.458 321.88C281.591 324.973 279.058 327.427 275.858 329.24C272.658 331 269.031 331.88 264.978 331.88ZM264.978 320.76C266.738 320.76 268.284 320.387 269.618 319.64C270.951 318.84 271.964 317.747 272.658 316.36C273.404 314.92 273.778 313.293 273.778 311.48C273.778 309.667 273.404 308.093 272.658 306.76C271.911 305.373 270.871 304.307 269.538 303.56C268.258 302.76 266.738 302.36 264.978 302.36C263.271 302.36 261.751 302.76 260.418 303.56C259.084 304.307 258.044 305.373 257.298 306.76C256.551 308.147 256.178 309.747 256.178 311.56C256.178 313.32 256.551 314.92 257.298 316.36C258.044 317.747 259.084 318.84 260.418 319.64C261.751 320.387 263.271 320.76 264.978 320.76ZM299.016 331.88C296.936 331.88 295.202 331.16 293.816 329.72C292.429 328.28 291.736 326.547 291.736 324.52C291.736 322.387 292.429 320.627 293.816 319.24C295.202 317.8 296.936 317.08 299.016 317.08C301.149 317.08 302.882 317.8 304.216 319.24C305.602 320.627 306.296 322.387 306.296 324.52C306.296 326.547 305.602 328.28 304.216 329.72C302.882 331.16 301.149 331.88 299.016 331.88Z" fill="#D9D9D9"/>
</g>
<g opacity="0.4">
<path d="M104.918 434L91.4781 395.12H103.478L111.798 423.36L108.278 423.44L117.478 395.12H127.398L136.678 423.44L133.078 423.36L141.478 395.12H153.478L140.038 434H130.038L120.998 407.12H124.038L114.838 434H104.918ZM173.669 434.8C170.096 434.8 166.896 433.92 164.069 432.16C161.296 430.4 159.083 428 157.429 424.96C155.829 421.92 155.029 418.453 155.029 414.56C155.029 410.667 155.829 407.2 157.429 404.16C159.083 401.12 161.296 398.72 164.069 396.96C166.896 395.2 170.096 394.32 173.669 394.32C176.283 394.32 178.629 394.827 180.709 395.84C182.843 396.853 184.576 398.267 185.909 400.08C187.243 401.84 187.989 403.867 188.149 406.16V422.96C187.989 425.253 187.243 427.307 185.909 429.12C184.629 430.88 182.923 432.267 180.789 433.28C178.656 434.293 176.283 434.8 173.669 434.8ZM176.149 423.76C178.763 423.76 180.869 422.907 182.469 421.2C184.069 419.44 184.869 417.227 184.869 414.56C184.869 412.747 184.496 411.147 183.749 409.76C183.056 408.373 182.043 407.307 180.709 406.56C179.429 405.76 177.936 405.36 176.229 405.36C174.523 405.36 173.003 405.76 171.669 406.56C170.389 407.307 169.349 408.373 168.549 409.76C167.803 411.147 167.429 412.747 167.429 414.56C167.429 416.32 167.803 417.893 168.549 419.28C169.296 420.667 170.336 421.76 171.669 422.56C173.003 423.36 174.496 423.76 176.149 423.76ZM184.389 434V423.52L186.229 414.08L184.389 404.64V395.12H196.389V434H184.389Z" fill="white"/>
<path d="M217.008 434.16L201.008 395.12H214.208L224.368 426.08H219.488L229.888 395.12H243.088L226.448 434.16H217.008ZM207.008 450.4L218.688 425.2L226.448 434.16L219.568 450.4H207.008ZM264.978 434.88C260.978 434.88 257.351 434 254.098 432.24C250.898 430.427 248.364 427.973 246.498 424.88C244.631 421.787 243.698 418.32 243.698 414.48C243.698 410.64 244.631 407.2 246.498 404.16C248.364 401.12 250.898 398.72 254.098 396.96C257.298 395.147 260.924 394.24 264.978 394.24C269.031 394.24 272.658 395.12 275.858 396.88C279.058 398.64 281.591 401.067 283.458 404.16C285.324 407.2 286.258 410.64 286.258 414.48C286.258 418.32 285.324 421.787 283.458 424.88C281.591 427.973 279.058 430.427 275.858 432.24C272.658 434 269.031 434.88 264.978 434.88ZM264.978 423.76C266.738 423.76 268.284 423.387 269.618 422.64C270.951 421.84 271.964 420.747 272.658 419.36C273.404 417.92 273.778 416.293 273.778 414.48C273.778 412.667 273.404 411.093 272.658 409.76C271.911 408.373 270.871 407.307 269.538 406.56C268.258 405.76 266.738 405.36 264.978 405.36C263.271 405.36 261.751 405.76 260.418 406.56C259.084 407.307 258.044 408.373 257.298 409.76C256.551 411.147 256.178 412.747 256.178 414.56C256.178 416.32 256.551 417.92 257.298 419.36C258.044 420.747 259.084 421.84 260.418 422.64C261.751 423.387 263.271 423.76 264.978 423.76ZM299.016 434.88C296.936 434.88 295.202 434.16 293.816 432.72C292.429 431.28 291.736 429.547 291.736 427.52C291.736 425.387 292.429 423.627 293.816 422.24C295.202 420.8 296.936 420.08 299.016 420.08C301.149 420.08 302.882 420.8 304.216 422.24C305.602 423.627 306.296 425.387 306.296 427.52C306.296 429.547 305.602 431.28 304.216 432.72C302.882 434.16 301.149 434.88 299.016 434.88Z" fill="#D9D9D9"/>
</g>
<g opacity="0.2">
<path d="M104.918 537L91.4781 498.12H103.478L111.798 526.36L108.278 526.44L117.478 498.12H127.398L136.678 526.44L133.078 526.36L141.478 498.12H153.478L140.038 537H130.038L120.998 510.12H124.038L114.838 537H104.918ZM173.669 537.8C170.096 537.8 166.896 536.92 164.069 535.16C161.296 533.4 159.083 531 157.429 527.96C155.829 524.92 155.029 521.453 155.029 517.56C155.029 513.667 155.829 510.2 157.429 507.16C159.083 504.12 161.296 501.72 164.069 499.96C166.896 498.2 170.096 497.32 173.669 497.32C176.283 497.32 178.629 497.827 180.709 498.84C182.843 499.853 184.576 501.267 185.909 503.08C187.243 504.84 187.989 506.867 188.149 509.16V525.96C187.989 528.253 187.243 530.307 185.909 532.12C184.629 533.88 182.923 535.267 180.789 536.28C178.656 537.293 176.283 537.8 173.669 537.8ZM176.149 526.76C178.763 526.76 180.869 525.907 182.469 524.2C184.069 522.44 184.869 520.227 184.869 517.56C184.869 515.747 184.496 514.147 183.749 512.76C183.056 511.373 182.043 510.307 180.709 509.56C179.429 508.76 177.936 508.36 176.229 508.36C174.523 508.36 173.003 508.76 171.669 509.56C170.389 510.307 169.349 511.373 168.549 512.76C167.803 514.147 167.429 515.747 167.429 517.56C167.429 519.32 167.803 520.893 168.549 522.28C169.296 523.667 170.336 524.76 171.669 525.56C173.003 526.36 174.496 526.76 176.149 526.76ZM184.389 537V526.52L186.229 517.08L184.389 507.64V498.12H196.389V537H184.389Z" fill="white"/>
<path d="M217.008 537.16L201.008 498.12H214.208L224.368 529.08H219.488L229.888 498.12H243.088L226.448 537.16H217.008ZM207.008 553.4L218.688 528.2L226.448 537.16L219.568 553.4H207.008ZM264.978 537.88C260.978 537.88 257.351 537 254.098 535.24C250.898 533.427 248.364 530.973 246.498 527.88C244.631 524.787 243.698 521.32 243.698 517.48C243.698 513.64 244.631 510.2 246.498 507.16C248.364 504.12 250.898 501.72 254.098 499.96C257.298 498.147 260.924 497.24 264.978 497.24C269.031 497.24 272.658 498.12 275.858 499.88C279.058 501.64 281.591 504.067 283.458 507.16C285.324 510.2 286.258 513.64 286.258 517.48C286.258 521.32 285.324 524.787 283.458 527.88C281.591 530.973 279.058 533.427 275.858 535.24C272.658 537 269.031 537.88 264.978 537.88ZM264.978 526.76C266.738 526.76 268.284 526.387 269.618 525.64C270.951 524.84 271.964 523.747 272.658 522.36C273.404 520.92 273.778 519.293 273.778 517.48C273.778 515.667 273.404 514.093 272.658 512.76C271.911 511.373 270.871 510.307 269.538 509.56C268.258 508.76 266.738 508.36 264.978 508.36C263.271 508.36 261.751 508.76 260.418 509.56C259.084 510.307 258.044 511.373 257.298 512.76C256.551 514.147 256.178 515.747 256.178 517.56C256.178 519.32 256.551 520.92 257.298 522.36C258.044 523.747 259.084 524.84 260.418 525.64C261.751 526.387 263.271 526.76 264.978 526.76ZM299.016 537.88C296.936 537.88 295.202 537.16 293.816 535.72C292.429 534.28 291.736 532.547 291.736 530.52C291.736 528.387 292.429 526.627 293.816 525.24C295.202 523.8 296.936 523.08 299.016 523.08C301.149 523.08 302.882 523.8 304.216 525.24C305.602 526.627 306.296 528.387 306.296 530.52C306.296 532.547 305.602 534.28 304.216 535.72C302.882 537.16 301.149 537.88 299.016 537.88Z" fill="#D9D9D9"/>
</g>
<g opacity="0.05">
<path d="M104.918 640L91.4781 601.12H103.478L111.798 629.36L108.278 629.44L117.478 601.12H127.398L136.678 629.44L133.078 629.36L141.478 601.12H153.478L140.038 640H130.038L120.998 613.12H124.038L114.838 640H104.918ZM173.669 640.8C170.096 640.8 166.896 639.92 164.069 638.16C161.296 636.4 159.083 634 157.429 630.96C155.829 627.92 155.029 624.453 155.029 620.56C155.029 616.667 155.829 613.2 157.429 610.16C159.083 607.12 161.296 604.72 164.069 602.96C166.896 601.2 170.096 600.32 173.669 600.32C176.283 600.32 178.629 600.827 180.709 601.84C182.843 602.853 184.576 604.267 185.909 606.08C187.243 607.84 187.989 609.867 188.149 612.16V628.96C187.989 631.253 187.243 633.307 185.909 635.12C184.629 636.88 182.923 638.267 180.789 639.28C178.656 640.293 176.283 640.8 173.669 640.8ZM176.149 629.76C178.763 629.76 180.869 628.907 182.469 627.2C184.069 625.44 184.869 623.227 184.869 620.56C184.869 618.747 184.496 617.147 183.749 615.76C183.056 614.373 182.043 613.307 180.709 612.56C179.429 611.76 177.936 611.36 176.229 611.36C174.523 611.36 173.003 611.76 171.669 612.56C170.389 613.307 169.349 614.373 168.549 615.76C167.803 617.147 167.429 618.747 167.429 620.56C167.429 622.32 167.803 623.893 168.549 625.28C169.296 626.667 170.336 627.76 171.669 628.56C173.003 629.36 174.496 629.76 176.149 629.76ZM184.389 640V629.52L186.229 620.08L184.389 610.64V601.12H196.389V640H184.389Z" fill="white"/>
<path d="M217.008 640.16L201.008 601.12H214.208L224.368 632.08H219.488L229.888 601.12H243.088L226.448 640.16H217.008ZM207.008 656.4L218.688 631.2L226.448 640.16L219.568 656.4H207.008ZM264.978 640.88C260.978 640.88 257.351 640 254.098 638.24C250.898 636.427 248.364 633.973 246.498 630.88C244.631 627.787 243.698 624.32 243.698 620.48C243.698 616.64 244.631 613.2 246.498 610.16C248.364 607.12 250.898 604.72 254.098 602.96C257.298 601.147 260.924 600.24 264.978 600.24C269.031 600.24 272.658 601.12 275.858 602.88C279.058 604.64 281.591 607.067 283.458 610.16C285.324 613.2 286.258 616.64 286.258 620.48C286.258 624.32 285.324 627.787 283.458 630.88C281.591 633.973 279.058 636.427 275.858 638.24C272.658 640 269.031 640.88 264.978 640.88ZM264.978 629.76C266.738 629.76 268.284 629.387 269.618 628.64C270.951 627.84 271.964 626.747 272.658 625.36C273.404 623.92 273.778 622.293 273.778 620.48C273.778 618.667 273.404 617.093 272.658 615.76C271.911 614.373 270.871 613.307 269.538 612.56C268.258 611.76 266.738 611.36 264.978 611.36C263.271 611.36 261.751 611.76 260.418 612.56C259.084 613.307 258.044 614.373 257.298 615.76C256.551 617.147 256.178 618.747 256.178 620.56C256.178 622.32 256.551 623.92 257.298 625.36C258.044 626.747 259.084 627.84 260.418 628.64C261.751 629.387 263.271 629.76 264.978 629.76ZM299.016 640.88C296.936 640.88 295.202 640.16 293.816 638.72C292.429 637.28 291.736 635.547 291.736 633.52C291.736 631.387 292.429 629.627 293.816 628.24C295.202 626.8 296.936 626.08 299.016 626.08C301.149 626.08 302.882 626.8 304.216 628.24C305.602 629.627 306.296 631.387 306.296 633.52C306.296 635.547 305.602 637.28 304.216 638.72C302.882 640.16 301.149 640.88 299.016 640.88Z" fill="#D9D9D9"/>
</g>
</svg>
