<svg width="162" height="43" viewBox="0 0 162 43" fill="none" xmlns="http://www.w3.org/2000/svg">
<path d="M10.4386 30L0.358594 0.839998H9.35859L15.5986 22.02L12.9586 22.08L19.8586 0.839998H27.2986L34.2586 22.08L31.5586 22.02L37.8586 0.839998H46.8586L36.7786 30H29.2786L22.4986 9.84H24.7786L17.8786 30H10.4386ZM62.002 30.6C59.322 30.6 56.922 29.94 54.802 28.62C52.722 27.3 51.062 25.5 49.822 23.22C48.622 20.94 48.022 18.34 48.022 15.42C48.022 12.5 48.622 9.9 49.822 7.62C51.062 5.34 52.722 3.54 54.802 2.22C56.922 0.899999 59.322 0.239999 62.002 0.239999C63.962 0.239999 65.722 0.619999 67.282 1.38C68.882 2.14 70.182 3.2 71.182 4.56C72.182 5.88 72.742 7.4 72.862 9.12V21.72C72.742 23.44 72.182 24.98 71.182 26.34C70.222 27.66 68.942 28.7 67.342 29.46C65.742 30.22 63.962 30.6 62.002 30.6ZM63.862 22.32C65.822 22.32 67.402 21.68 68.602 20.4C69.802 19.08 70.402 17.42 70.402 15.42C70.402 14.06 70.122 12.86 69.562 11.82C69.042 10.78 68.282 9.98 67.282 9.42C66.322 8.82 65.202 8.52 63.922 8.52C62.642 8.52 61.502 8.82 60.502 9.42C59.542 9.98 58.762 10.78 58.162 11.82C57.602 12.86 57.322 14.06 57.322 15.42C57.322 16.74 57.602 17.92 58.162 18.96C58.722 20 59.502 20.82 60.502 21.42C61.502 22.02 62.622 22.32 63.862 22.32ZM70.042 30V22.14L71.422 15.06L70.042 7.98V0.839998H79.042V30H70.042Z" fill="white"/>
<path d="M94.5056 30.12L82.5056 0.839998H92.4056L100.026 24.06H96.3656L104.166 0.839998H114.066L101.586 30.12H94.5056ZM87.0056 42.3L95.7656 23.4L101.586 30.12L96.4256 42.3H87.0056ZM130.483 30.66C127.483 30.66 124.763 30 122.323 28.68C119.923 27.32 118.023 25.48 116.623 23.16C115.223 20.84 114.523 18.24 114.523 15.36C114.523 12.48 115.223 9.9 116.623 7.62C118.023 5.34 119.923 3.54 122.323 2.22C124.723 0.859999 127.443 0.179999 130.483 0.179999C133.523 0.179999 136.243 0.839999 138.643 2.16C141.043 3.48 142.943 5.3 144.343 7.62C145.743 9.9 146.443 12.48 146.443 15.36C146.443 18.24 145.743 20.84 144.343 23.16C142.943 25.48 141.043 27.32 138.643 28.68C136.243 30 133.523 30.66 130.483 30.66ZM130.483 22.32C131.803 22.32 132.963 22.04 133.963 21.48C134.963 20.88 135.723 20.06 136.243 19.02C136.803 17.94 137.083 16.72 137.083 15.36C137.083 14 136.803 12.82 136.243 11.82C135.683 10.78 134.903 9.98 133.903 9.42C132.943 8.82 131.803 8.52 130.483 8.52C129.203 8.52 128.063 8.82 127.063 9.42C126.063 9.98 125.283 10.78 124.723 11.82C124.163 12.86 123.883 14.06 123.883 15.42C123.883 16.74 124.163 17.94 124.723 19.02C125.283 20.06 126.063 20.88 127.063 21.48C128.063 22.04 129.203 22.32 130.483 22.32ZM156.012 30.66C154.452 30.66 153.152 30.12 152.112 29.04C151.072 27.96 150.552 26.66 150.552 25.14C150.552 23.54 151.072 22.22 152.112 21.18C153.152 20.1 154.452 19.56 156.012 19.56C157.612 19.56 158.912 20.1 159.912 21.18C160.952 22.22 161.472 23.54 161.472 25.14C161.472 26.66 160.952 27.96 159.912 29.04C158.912 30.12 157.612 30.66 156.012 30.66Z" fill="#D9D9D9"/>
</svg>
